# xmcd
#
# Track frame offsets:
#	150
#	15545
#	33360
#	52191
#	70685
#	87136
#	104431
#	120009
#	136760
#	150968
#	167783
#	185333
#	199602
#	221491
#	239019
#	257181
#	274599
#	295047
#	308093
#
# Disc length: 4344 seconds
#
# Revision: 2
# Processed by: cddbd v1.5.2PL0 Copyright (c) Steve Scherf et al.
# Submitted via: audiograbber 1.83.01
#
DISCID=fc10f613
DTITLE=Various Artist - ZM-PB-15-5
DYEAR=2015
DGENRE=Karaoke
TTITLE0=One Direction - Drag Me down
TTITLE1=One Direction - Night Changes
TTITLE2=OneRepublic - I Lived
TTITLE3=R City Ft Adam Levine - Locked Away
TTITLE4=Rachel Platten - Fight Song
TTITLE5=Rihanna - Bitch Better Have My Money
TTITLE6=Rihanna Ft Kanye West And Paul McCartney - Four Five Seconds
TTITLE7=Rita Ora - Poison
TTITLE8=Robin Schulz Ft Jasmin Thompson - Sun Goes Down
TTITLE9=Sam Feldt Ft Kimberly Anne - Show Me Love
TTITLE10=Sam Smith - Lay Me Down
TTITLE11=Sam Smith - Like I Can
TTITLE12=Sam Smith - Writing's On The Wall
TTITLE13=Sam Smith And John Legend - Lay Me Down
TTITLE14=Selena Gomez - The Heart Wants What It Wants
TTITLE15=Sheppard - Geronimo
TTITLE16=Sia - Alive
TTITLE17=Sigala - Easy Love
TTITLE18=Sigma Ft Ella Henderson - Glitterball
EXTD=
EXTT0=
EXTT1=
EXTT2=
EXTT3=
EXTT4=
EXTT5=
EXTT6=
EXTT7=
EXTT8=
EXTT9=
EXTT10=
EXTT11=
EXTT12=
EXTT13=
EXTT14=
EXTT15=
EXTT16=
EXTT17=
EXTT18=
PLAYORDER=
